<svg xmlns="http://www.w3.org/2000/svg" viewBox="0 0 1808.5 348.2">
  <g>
    <polygon points="134.7 8.5 255.5 8.5 120.8 174.5 255.5 340.5 134.7 340.5 0 174.5 134.7 8.5" style="fill: #fff"/>
    <polygon points="1673.8 340.5 1553 340.5 1687.7 174.5 1553 8.5 1673.8 8.5 1808.5 174.5 1673.8 340.5" style="fill: #fff"/>
    <g>
      <g>
        <path d="M425.5,8.5c35.4,0,66.7,6.9,93.6,20.7S567,62.4,581.9,87.5s22.3,53.9,22.3,86.6S596.8,235.9,582,261s-35.6,44.6-62.6,58.4-58,20.7-93.3,20.7H285.4V8.4H425.5ZM488.6,237c15.4-14.6,23.2-35.3,23.2-61.9s-7.6-47.3-22.7-62.6-37.2-22.8-66.3-22.8H376V258.9h46.8C451.2,258.9,473.2,251.6,488.6,237Z" style="fill: #fff"/>
        <path d="M879.1,8.2h97.1l79.3,210.9h1.2L1136.2,8.2h97.1L1097.2,340.1H1015Z" style="fill: #fff"/>
        <path d="M1295.1,324.8a178.33,178.33,0,0,1-66.1-63.5,164.73,164.73,0,0,1-24.4-87.4q0-47.55,24.4-87.4t66.1-63.2Q1336.8.05,1386.3,0c32.8,0,63.2,7.8,91,23.3a177.83,177.83,0,0,1,66.2,63.2,164.07,164.07,0,0,1,24.5,87.4,164.82,164.82,0,0,1-24.5,87.4,178.61,178.61,0,0,1-66.2,63.5q-41.7,23.4-91,23.4Q1336.8,348.2,1295.1,324.8Zm136.7-72a84.47,84.47,0,0,0,32.6-32.1c8-13.7,11.9-29.3,11.9-46.7s-4-33-11.9-46.7a85.18,85.18,0,0,0-32.6-32.1,95.76,95.76,0,0,0-91,0,84.47,84.47,0,0,0-32.6,32.1c-8,13.7-11.9,29.3-11.9,46.7s4,32.9,12.1,46.6a86.15,86.15,0,0,0,32.7,32.1,90.8,90.8,0,0,0,45.2,11.6C1402.9,264.3,1418.1,260.5,1431.8,252.8Z" style="fill: #fff"/>
      </g>
      <polygon points="864.9 258.7 715.2 258.7 715.2 210.2 864.9 210.2 864.9 133.8 715.2 133.8 715.2 89.7 862.7 89.7 862.7 8.5 623.3 8.5 623.3 340.1 864.9 340.1 864.9 258.7" style="fill: #fff"/>
    </g>
  </g>
</svg>
