<svg xmlns="http://www.w3.org/2000/svg" viewBox="0 0 1857.36 348.63">
  <g>
    <polygon points="1722.64 8.3 1601.86 8.3 1736.58 174.32 1601.86 340.33 1722.64 340.33 1857.36 174.32 1722.64 8.3" style="fill: #fff"/>
    <polygon points="134.72 8.3 255.5 8.3 120.78 174.32 255.5 340.33 134.72 340.33 0 174.32 134.72 8.3" style="fill: #fff"/>
    <path d="M1343.67,325.2a178,178,0,0,1-66.17-63.6,165.43,165.43,0,0,1-24.41-87.53q0-47.61,24.41-87.52a177.61,177.61,0,0,1,66.17-63.23Q1385.42,0,1435,0q49.3,0,91.06,23.32a178.52,178.52,0,0,1,66.28,63.23,163.91,163.91,0,0,1,24.54,87.52,164.74,164.74,0,0,1-24.54,87.53A178.94,178.94,0,0,1,1526,325.2q-41.74,23.43-91.06,23.43Q1385.41,348.63,1343.67,325.2Zm136.84-72a84.52,84.52,0,0,0,32.59-32.1q12-20.62,12-46.75t-12-46.76a84.66,84.66,0,0,0-32.59-32.1,96,96,0,0,0-91.07,0,84.59,84.59,0,0,0-32.59,32.1q-12,20.64-12,46.76T1357,221a86.62,86.62,0,0,0,32.72,32.1,90.83,90.83,0,0,0,45.29,11.6A92,92,0,0,0,1480.51,253.17Z" style="fill: #fff"/>
    <path d="M425.64,8.3q53.22,0,93.75,20.75T582.25,87.4q22.35,37.6,22.34,86.67,0,49.32-22.21,87t-62.63,58.47q-40.41,20.76-93.38,20.75H285.5V8.3Zm63.23,228.76q23.19-22,23.19-62,0-39.8-22.7-62.62T423,89.6H376.08V259H423Q465.67,259,488.87,237.06Z" style="fill: #fff"/>
    <path d="M636.65,8.3h242V89.6H728.7v44.19l149.9,2.07v76.42l-149.9-2.07v48.58H878.6v81.54h-242Z" style="fill: #fff"/>
    <path d="M908.6,8.18h97.17l79.34,211.18h1.22L1165.92,8.18h97.17L1126.86,340.45h-82.28Z" style="fill: #fff"/>
  </g>
</svg>
