<svg xmlns="http://www.w3.org/2000/svg" viewBox="0 0 1857.4 348.7">
  <g>
    <polygon points="1722.7 8.5 1601.9 8.5 1736.6 174.5 1601.9 340.5 1722.7 340.5 1857.4 174.5 1722.7 8.5" style="fill: #fff"/>
    <polygon points="134.8 8.5 255.5 8.5 120.8 174.5 255.5 340.5 134.8 340.5 0 174.5 134.8 8.5" style="fill: #fff"/>
    <g>
      <path d="M284.5,8.4h92V258.9H506.4v81.5H284.5Z" style="fill: #fff"/>
      <path d="M606.6,325.1a178.1,178.1,0,0,1-66.2-63.6A165.07,165.07,0,0,1,516,174q0-47.55,24.4-87.5a177.09,177.09,0,0,1,66.2-63.2C634.4,7.8,664.9,0,697.9,0S761.1,7.8,789,23.3a178.86,178.86,0,0,1,66.3,63.2c16.4,26.6,24.5,55.8,24.5,87.5a164.92,164.92,0,0,1-24.5,87.5A179.12,179.12,0,0,1,789,325.1q-41.7,23.4-91.1,23.4Q648.25,348.5,606.6,325.1Zm136.8-72A83.8,83.8,0,0,0,776,221c8-13.8,12-29.3,12-46.8s-4-33-12-46.8a83.8,83.8,0,0,0-32.6-32.1,92.64,92.64,0,0,0-45.5-11.5c-16.6,0-31.8,3.8-45.5,11.5a85.18,85.18,0,0,0-32.6,32.1c-8,13.8-12,29.3-12,46.8s4,33,12.1,46.6a86.84,86.84,0,0,0,32.7,32.1,95.36,95.36,0,0,0,90.8.2Z" style="fill: #fff"/>
      <path d="M987.9,325a179.8,179.8,0,0,1-64.6-63.6,166.84,166.84,0,0,1-24-87.4,165.94,165.94,0,0,1,24.2-87.5,176.81,176.81,0,0,1,65.3-63.2Q1029.9.05,1078.5,0q36.15,0,72.9,15.3a176.48,176.48,0,0,1,63.1,44.1,125.75,125.75,0,0,1,32.2,67.6h-93.8c-7.7-13.8-18-24.5-31-31.9S1093.5,84,1075.8,84a86.46,86.46,0,0,0-42.5,10.6c-12.9,7.1-23.1,17.4-30.8,31S991,155.4,991,174.3c0,19.5,3.8,36.1,11.4,49.6s17.8,23.7,30.6,30.5a90.12,90.12,0,0,0,42.7,10.3q25.35,0,43.8-9.3a49.61,49.61,0,0,0,25.3-28.8h-72.5V154.8h176q.9,61.35-19.3,104.9T1169.7,326q-39,22.65-93.8,22.7A174.59,174.59,0,0,1,987.9,325Z" style="fill: #fff"/>
      <path d="M1358.6,325.1a178.1,178.1,0,0,1-66.2-63.6A165.07,165.07,0,0,1,1268,174q0-47.55,24.4-87.5a177.09,177.09,0,0,1,66.2-63.2C1386.4,7.8,1416.9,0,1449.9,0s63.2,7.8,91.1,23.3a178.86,178.86,0,0,1,66.3,63.2c16.4,26.6,24.5,55.8,24.5,87.5a164.92,164.92,0,0,1-24.5,87.5,179.12,179.12,0,0,1-66.3,63.6q-41.7,23.4-91.1,23.4Q1400.25,348.5,1358.6,325.1Zm136.8-72A83.8,83.8,0,0,0,1528,221c8-13.8,12-29.3,12-46.8s-4-33-12-46.8a83.8,83.8,0,0,0-32.6-32.1,92.64,92.64,0,0,0-45.5-11.5c-16.6,0-31.8,3.8-45.5,11.5a85.18,85.18,0,0,0-32.6,32.1c-8,13.8-12,29.3-12,46.8s4,33,12.1,46.6a86.84,86.84,0,0,0,32.7,32.1,95.36,95.36,0,0,0,90.8.2Z" style="fill: #fff"/>
    </g>
  </g>
</svg>
